<?xml version="1.0" encoding="UTF-8" standalone="no"?>
<!-- Created with Inkscape (http://www.inkscape.org/) -->

<svg
   xmlns:dc="http://purl.org/dc/elements/1.1/"
   xmlns:cc="http://creativecommons.org/ns#"
   xmlns:rdf="http://www.w3.org/1999/02/22-rdf-syntax-ns#"
   xmlns:svg="http://www.w3.org/2000/svg"
   xmlns="http://www.w3.org/2000/svg"
   xmlns:xlink="http://www.w3.org/1999/xlink"
   xmlns:sodipodi="http://sodipodi.sourceforge.net/DTD/sodipodi-0.dtd"
   xmlns:inkscape="http://www.inkscape.org/namespaces/inkscape"
   width="744.09448819"
   height="1052.3622047"
   id="svg2"
   version="1.1"
   inkscape:version="0.48.0 r9654"
   sodipodi:docname="nem vegleges logo.svg"
   inkscape:export-filename="/home/erben/Asztal/nem vegleges logo.png"
   inkscape:export-xdpi="90"
   inkscape:export-ydpi="90">
  <defs
     id="defs4">
    <linearGradient
       id="linearGradient3989">
      <stop
         id="stop3991"
         offset="0"
         style="stop-color:#e86f18;stop-opacity:1;" />
      <stop
         id="stop3993"
         offset="1"
         style="stop-color:#800000;stop-opacity:0;" />
    </linearGradient>
    <linearGradient
       id="linearGradient5284">
      <stop
         style="stop-color:#aaaaaa;stop-opacity:1;"
         offset="0"
         id="stop5286" />
      <stop
         style="stop-color:#999999;stop-opacity:0;"
         offset="1"
         id="stop5288" />
    </linearGradient>
    <linearGradient
       id="linearGradient5272">
      <stop
         style="stop-color:#999999;stop-opacity:1;"
         offset="0"
         id="stop5274" />
      <stop
         style="stop-color:#999999;stop-opacity:0;"
         offset="1"
         id="stop5276" />
    </linearGradient>
    <radialGradient
       inkscape:collect="always"
       xlink:href="#linearGradient5284-8"
       id="radialGradient5293-6"
       gradientUnits="userSpaceOnUse"
       gradientTransform="matrix(-2.5666966,-0.03863779,0.01496025,-0.99380402,-3556.2581,1217.6414)"
       cx="-994.43091"
       cy="629.9837"
       fx="-994.43091"
       fy="629.9837"
       r="46.234375" />
    <linearGradient
       id="linearGradient5284-8">
      <stop
         style="stop-color:#aaaaaa;stop-opacity:1;"
         offset="0"
         id="stop5286-8" />
      <stop
         style="stop-color:#999999;stop-opacity:0;"
         offset="1"
         id="stop5288-2" />
    </linearGradient>
    <radialGradient
       inkscape:collect="always"
       xlink:href="#linearGradient5284-8"
       id="radialGradient3170"
       gradientUnits="userSpaceOnUse"
       gradientTransform="matrix(2.5666966,0.03863779,-0.01496025,0.99380402,1856.0042,89.661686)"
       cx="-994.43091"
       cy="629.9837"
       fx="-994.43091"
       fy="629.9837"
       r="46.234375" />
    <radialGradient
       inkscape:collect="always"
       xlink:href="#linearGradient5284"
       id="radialGradient3173"
       gradientUnits="userSpaceOnUse"
       gradientTransform="matrix(-2.5666966,-0.03863779,0.01496025,-0.99380402,-3558.2581,1271.6414)"
       cx="-994.43091"
       cy="629.9837"
       fx="-994.43091"
       fy="629.9837"
       r="46.234375" />
    <linearGradient
       inkscape:collect="always"
       xlink:href="#linearGradient5272"
       id="linearGradient3176"
       gradientUnits="userSpaceOnUse"
       x1="-1141.3242"
       y1="926.7749"
       x2="-1142.2854"
       y2="854.47333"
       gradientTransform="translate(294.21346,-65.112288)" />
    <filter
       inkscape:collect="always"
       id="filter4013"
       x="-0.33633394"
       width="1.6726679"
       y="-0.32797781"
       height="1.6559556">
      <feGaussianBlur
         inkscape:collect="always"
         stdDeviation="88.00738"
         id="feGaussianBlur4015" />
    </filter>
  </defs>
  <sodipodi:namedview
     id="base"
     pagecolor="#ffffff"
     bordercolor="#666666"
     borderopacity="1.0"
     inkscape:pageopacity="0.0"
     inkscape:pageshadow="2"
     inkscape:zoom="0.35355339"
     inkscape:cx="13.16422"
     inkscape:cy="300.20571"
     inkscape:document-units="px"
     inkscape:current-layer="layer1"
     showgrid="false"
     inkscape:window-width="1280"
     inkscape:window-height="947"
     inkscape:window-x="0"
     inkscape:window-y="24"
     inkscape:window-maximized="1" />
  <metadata
     id="metadata7">
    <rdf:RDF>
      <cc:Work
         rdf:about="">
        <dc:format>image/svg+xml</dc:format>
        <dc:type
           rdf:resource="http://purl.org/dc/dcmitype/StillImage" />
        <dc:title />
      </cc:Work>
    </rdf:RDF>
  </metadata>
  <g
     inkscape:label="Layer 1"
     inkscape:groupmode="layer"
     id="layer1">
    <path
       sodipodi:type="arc"
       style="fill:#ff6600;fill-opacity:1;fill-rule:nonzero;stroke:#d7a01c;stroke-width:5;stroke-linecap:round;stroke-miterlimit:4;stroke-opacity:1;stroke-dasharray:none;stroke-dashoffset:0.05;filter:url(#filter4013)"
       id="path3211"
       sodipodi:cx="-1214"
       sodipodi:cy="950.36218"
       sodipodi:rx="314"
       sodipodi:ry="322"
       d="m -900,950.36218 a 314,322 0 1 1 -628,0 314,322 0 1 1 628,0 z"
       transform="translate(1564.1202,-438.4062)" />
    <g
       id="g3068"
       transform="translate(1547.1496,-449.71991)">
      <g
         transform="translate(-365.99999,333.99999)"
         id="g5390">
        <path
           style="fill:none;stroke:#2a8b21;stroke-width:5;stroke-linecap:round;stroke-miterlimit:4;stroke-opacity:1;stroke-dashoffset:0.05"
           d="m -755.42268,648.71217 c 0,12.33448 -6.03675,22.94714 -24.75564,31.0303 -18.71889,8.08315 -50.11992,5.87923 -78.68398,5.87923 -28.56407,0 -63.84388,1.0957 -82.56277,-6.98745 -18.71889,-8.08316 -20.87686,-25.34518 -20.87686,-37.67966 0,-12.33448 3.26619,-26.82594 21.98508,-34.90909 18.71889,-8.08316 52.89048,-9.75802 81.45455,-9.75802 28.56406,0 57.19452,-6.0827 75.91341,2.00045 4.67973,2.02079 13.44993,-19.03843 28.4058,-20.95649 14.95586,-1.91807 3.16736,22.08684 6.2297,19.08518 2.65315,-2.60057 30.24326,3.40652 27.01148,12.97862 -0.93847,2.77959 27.6136,2.08821 27.6119,5.99966 -0.002,3.91145 -2.64114,7.53157 -3.72975,11.45513 -1.08862,3.92355 -36.08962,-1.82348 -38.7538,1.08526 -5.32836,5.8175 23.10611,4.97674 17.40947,9.1623 -6.85858,5.03929 -36.65859,10.07277 -36.65859,11.61458 z"
           id="path5345"
           inkscape:connector-curvature="0"
           sodipodi:nodetypes="ssssssssssssssss" />
        <g
           id="g5354"
           transform="translate(44.196609,-30.228067)">
          <path
             transform="matrix(0.61640387,-0.78743017,0.78743017,0.61640387,-795.47671,-367.12356)"
             d="m -779.08223,625.6955 c 0,0.30602 -4.58957,0.55411 -10.25108,0.55411 -5.66152,0 -10.25109,-0.24809 -10.25109,-0.55411 0,-0.30603 4.58957,-0.55412 10.25109,-0.55412 5.66151,0 10.25108,0.24809 10.25108,0.55412 z"
             sodipodi:ry="0.55411255"
             sodipodi:rx="10.251082"
             sodipodi:cy="625.6955"
             sodipodi:cx="-789.33331"
             id="path5350"
             style="fill:none;stroke:#2a8b21;stroke-width:5;stroke-linecap:round;stroke-miterlimit:4;stroke-opacity:1;stroke-dasharray:none;stroke-dashoffset:0.05"
             sodipodi:type="arc" />
          <path
             transform="matrix(0.85322203,0.52154785,-0.52154785,0.85322203,218.1093,505.19453)"
             d="m -776.31166,640.10242 c 0,0.30602 -5.45786,0.55411 -12.19048,0.55411 -6.73261,0 -12.19047,-0.24809 -12.19047,-0.55411 0,-0.30603 5.45786,-0.55412 12.19047,-0.55412 6.73262,0 12.19048,0.24809 12.19048,0.55412 z"
             sodipodi:ry="0.55411255"
             sodipodi:rx="12.190476"
             sodipodi:cy="640.10242"
             sodipodi:cx="-788.50214"
             id="path5352"
             style="fill:none;stroke:#2a8b21;stroke-width:5;stroke-linecap:round;stroke-miterlimit:4;stroke-opacity:1;stroke-dasharray:none;stroke-dashoffset:0.05"
             sodipodi:type="arc" />
        </g>
        <path
           style="fill:none;stroke:#2a8b21;stroke-width:5;stroke-linecap:round;stroke-miterlimit:4;stroke-opacity:1;stroke-dashoffset:0.05"
           d="m -958.61474,641.48775 c 11.23525,-0.002 -13.17381,-0.27706 -23.27273,-0.27706 -2.52473,0 0.92286,-11.02074 -4.12195,-10.93086 -5.04482,0.0899 21.72965,-6.71829 16.26559,-6.60483 -0.68301,0.0142 9.98394,-4.26637 16.13158,-0.1045 6.14764,4.16187 7.77596,16.76617 10.34903,16.74919 5.14614,-0.0339 -7.26207,-16.7521 -5.70263,-15.30474 3.8601,3.58266 -7.72328,-4.68417 -9.6145,-4.6488 -3.78245,0.0708 -30.51058,10.0776 -30.51058,10.03935 0,-0.15302 5.97034,10.25108 16.06926,10.25108 10.09892,0 -18.84224,0.83663 14.40693,0.83117 z"
           id="path5358"
           inkscape:connector-curvature="0"
           sodipodi:nodetypes="sssssssssss" />
        <path
           sodipodi:type="arc"
           style="fill:none;stroke:#2a8b21;stroke-width:5;stroke-linecap:round;stroke-miterlimit:4;stroke-opacity:1;stroke-dasharray:none;stroke-dashoffset:0.05"
           id="path5360"
           sodipodi:cx="-904.31171"
           sodipodi:cy="689.9726"
           sodipodi:rx="1.6623377"
           sodipodi:ry="25.489178"
           d="m -902.64937,689.9726 c 0,14.07728 -0.74425,25.48917 -1.66234,25.48917 -0.91808,0 -1.66233,-11.41189 -1.66233,-25.48917 0,-14.07729 0.74425,-25.48918 1.66233,-25.48918 0.91809,0 1.66234,11.41189 1.66234,25.48918 z"
           transform="translate(-13.852814,21.61039)" />
        <path
           sodipodi:type="arc"
           style="fill:none;stroke:#2a8b21;stroke-width:5;stroke-linecap:round;stroke-miterlimit:4;stroke-opacity:1;stroke-dasharray:none;stroke-dashoffset:0.05"
           id="path5362"
           sodipodi:cx="-865.80084"
           sodipodi:cy="693.29724"
           sodipodi:rx="0.27705628"
           sodipodi:ry="29.922077"
           d="m -865.52379,693.29724 c 0,16.52551 -0.12404,29.92208 -0.27705,29.92208 -0.15302,0 -0.27706,-13.39657 -0.27706,-29.92208 0,-16.52551 0.12404,-29.92208 0.27706,-29.92208 0.15301,0 0.27705,13.39657 0.27705,29.92208 z"
           transform="translate(-27.151515,4.987013)" />
        <path
           sodipodi:type="arc"
           style="fill:none;stroke:#2a8b21;stroke-width:5;stroke-linecap:round;stroke-miterlimit:4;stroke-opacity:1;stroke-dasharray:none;stroke-dashoffset:0.05"
           id="path5364"
           sodipodi:cx="-835.60175"
           sodipodi:cy="697.17603"
           sodipodi:rx="1.1082251"
           sodipodi:ry="32.138527"
           d="m -834.49352,697.17603 c 0,17.74961 -0.49617,32.13852 -1.10823,32.13852 -0.61205,0 -1.10822,-14.38891 -1.10822,-32.13852 0,-17.74962 0.49617,-32.13853 1.10822,-32.13853 0.61206,0 1.10823,14.38891 1.10823,32.13853 z"
           transform="translate(19.393939,19.393939)" />
        <path
           sodipodi:type="arc"
           style="fill:none;stroke:#2a8b21;stroke-width:5;stroke-linecap:round;stroke-miterlimit:4;stroke-opacity:1;stroke-dasharray:none;stroke-dashoffset:0.05"
           id="path5366"
           sodipodi:cx="-805.95673"
           sodipodi:cy="697.17603"
           sodipodi:rx="1.9393939"
           sodipodi:ry="31.584415"
           d="m -804.01733,697.17603 c 0,17.44359 -0.8683,31.58441 -1.9394,31.58441 -1.07109,0 -1.93939,-14.14082 -1.93939,-31.58441 0,-17.4436 0.8683,-31.58442 1.93939,-31.58442 1.0711,0 1.9394,14.14082 1.9394,31.58442 z"
           transform="translate(12.744589,2.7705628)" />
      </g>
      <g
         id="flowRoot5369"
         style="font-size:40px;font-style:normal;font-weight:normal;line-height:125%;letter-spacing:0px;word-spacing:0px;fill:#800000;fill-opacity:1;stroke:none;font-family:Sans"
         transform="matrix(1.9550404,0,0,2.2947639,579.37804,-294.37662)">
        <path
           style="fill:#800000"
           sodipodi:nodetypes="cccccccccscscsssscccccssccccscscccccc"
           inkscape:connector-curvature="0"
           id="path5378"
           d="m -989.88281,513.95419 c 0,-9.54427 -0.56686,-27.85496 0,-28.63281 1.70168,-0.29127 3.53339,0.41449 5.32135,0.78477 l 4.54193,-0.78477 c 2.22655,3e-5 3.92576,0.13674 5.09766,0.41015 1.49889,1.76607 0.91463,1.00086 4.19921,2.05078 1.5104,1.27607 1.29367,2.18253 3.38868,4.89258 0.74867,1.9857 0.20188,3.62073 1.05218,6.29352 -2e-5,2.17449 -0.7145,3.4715 -0.69086,5.42282 -0.25391,0.83985 -0.54363,2.47882 -0.86916,3.1738 -0.32552,0.69499 -0.54513,5.03011 -1.0131,5.06712 -0.39715,0.55014 -1.02558,-2.03705 -1.46015,-1.60411 -0.43457,0.43295 -0.74614,0.68656 -1.21813,1.00232 -0.47201,0.31575 -1.24337,0.67863 -1.81304,0.91789 -0.56966,0.23926 -0.91257,6.84316 -2.03081,7.0913 -0.67172,0.14905 -1.32605,-6.65344 -2.27647,-6.75437 -0.95042,-0.10093 -1.76666,-0.0602 -1.89726,0.66901 -0.42683,2.38328 -1.03089,6.92879 -2.63311,6.76572 -1.00708,-0.69927 -2.08728,-6.37275 -3.05899,-6.70169 -1.5885,0.97409 -1.81959,3.9784 -3.10909,3.86308 -1.27477,-0.5926 -1.58579,-2.08836 -1.53084,-3.92711 z m 3.78906,-3.37891 c 2.03776,0.82011 4.07552,1.47327 6.11328,0 1.41252,-1.02123 3.63688,0.17202 4.44336,-0.52734 0.64906,-0.56284 2.5326,-0.0314 2.56836,-1.48438 0.89842,-0.89843 1.59829,-2.10611 2.09961,-3.62304 0.50128,-1.51692 1.24793,-3.50703 0.75195,-5.51758 -0.24802,-2.9646 0.25244,-4.11905 -1.47461,-6.9043 -0.49154,-0.80402 -0.76346,-2.01978 -1.63331,-2.01414 -0.70362,0.005 -1.31841,2.64701 -2.02153,2.37356 -0.50782,-0.1953 -0.33769,-2.20561 -1.13703,-3.20123 -0.79934,-0.99561 -2.56816,-0.97653 -3.69445,-0.97655 -0.14412,2.50894 -0.10347,6.15951 -1.3622,6.33854 -0.38446,-0.13344 -0.88859,-6.135 -1.64561,-6.33854 -1.59249,1.21706 -1.25205,1.95013 -2.24791,2.23358 -0.27255,-0.48073 -0.55442,-1.13209 -0.75991,-2.23358 0.039,8.9067 0,14.58333 0,21.875 z" />
        <path
           style="fill:#800000"
           sodipodi:nodetypes="cccccccccccccccccccc"
           inkscape:connector-curvature="0"
           id="path5380"
           d="m -962.79297,505.36044 0,-3.53516 c 0.45003,0.0904 0.92267,0.46034 1.3727,0.26962 0.45004,0.0901 0.87746,-0.22109 1.3275,-0.26962 0.59599,0.26025 1.17245,0.72028 1.8248,0.40443 -0.0116,-0.13481 0.48931,-0.26962 0.87539,-0.40443 0.55697,0.1736 1.13977,0.23714 1.75699,0.15407 0.28609,-0.0996 0.59688,-0.15711 0.94321,-0.15407 0.47263,0.11956 0.94527,0.14997 1.41791,0.11555 0.47519,-0.10719 0.86108,-0.10357 1.28228,-0.11555 0.14372,1.24369 0.3711,3.66821 -0.22605,3.70849 -0.702,-0.67145 -1.0818,-0.13041 -1.12405,-0.077 -0.36535,0.85351 -1.07823,1.56265 -1.3727,1.61773 -0.78264,-0.28614 -0.885,-1.29675 -1.32749,-1.94512 -1.13057,-0.0568 -0.92152,0.14985 -1.3501,0.2311 -0.48017,0.77009 -0.93774,0.94697 -1.44052,1.117 -0.72703,0.1279 -1.3862,-0.85173 -1.87002,-0.80886 -1.06758,0.18244 -1.00009,1.92587 -1.50014,2.8888 -0.50234,-0.18667 -0.34005,-0.84521 -0.50551,-1.27107 z" />
        <path
           style="fill:#800000"
           sodipodi:nodetypes="cccscscsscccssccssccccccccccscsccccccccscsssssssssssc"
           inkscape:connector-curvature="0"
           id="path5382"
           d="m -949.47266,507.76278 c 0.60214,0.28582 1.17214,1.09199 1.82871,0.49691 0.80516,-0.0427 0.52285,0.62807 1.06012,0.26581 0.0977,0.69662 -0.46359,1.21556 -0.19178,1.74941 0.27181,0.53386 1.24104,1.42928 1.68701,1.80037 0.44596,0.37109 1.38216,-0.49858 1.89787,-0.14723 1.91187,1.30255 2.03621,0.0665 2.83699,0.0665 0.80729,0 1.21654,0.49557 1.8155,0.33118 0.59896,-0.16438 1.11636,-1.45094 1.50699,-1.77971 0.78125,-0.65754 1.17186,-1.42904 1.17188,-2.31446 -2e-5,-0.79426 -0.4807,0.94956 -1.03516,-1.875 -0.48179,-0.31249 -1.06936,-0.84443 -2.98341,-1.32621 -0.98361,-1.49161 -1.70868,3.59912 -2.63863,3.21624 -0.92994,-0.38288 -2.33602,-4.7757 -2.98624,-4.7239 -1.30045,0.10359 -1.47633,1.73134 -1.97438,1.49371 -0.9961,-0.47525 -0.12372,-2.6735 -0.63804,-3.51335 -0.51433,-0.83983 -0.77149,-1.76757 -0.77149,-2.78321 0,-0.92446 0.21159,-1.78058 0.63477,-2.56836 0.42317,-0.78774 1.06716,-0.76798 1.72851,-1.96289 0.54687,-0.40362 0.68197,-0.55283 1.62599,-0.8328 1.44131,0.3171 2.56671,-0.61249 3.64745,-0.61251 1.62759,0.6163 2.921,1.10104 4.28711,0.70313 0.41666,-0.0705 1.8674,1.21908 2.02385,2.01984 -0.0244,1.22449 1.50948,1.81399 1.73086,3.15512 -0.57292,0.30566 -0.96499,-0.45933 -1.53791,0.17659 -0.1537,0.67939 -0.47964,1.26095 -0.99501,1.73492 -0.26716,-0.48251 -0.72503,-0.83506 -0.72374,-1.50054 0.1602,-1.08695 -0.60874,-1.90102 -1.35743,-2.5 -0.37436,-0.29947 -0.80341,1.11291 -1.33238,0.96318 -0.52897,-0.14974 -1.15785,-1.8616 -1.84144,-1.86161 -0.8073,10e-6 -1.3408,2.45478 -1.91697,2.58828 -0.57617,0.13347 -0.49425,-1.99664 -1.54006,-1.7875 -0.69011,0.53387 -1.03517,1.15887 -1.03516,1.875 -10e-6,0.45574 -0.015,1.48218 0.27145,1.84675 0.28645,0.37761 0.89391,0.0738 1.50589,0.32122 0.69064,0.90057 -0.57995,2.54816 3.10547,1.22583 2.48697,0.66408 2.79786,1.78546 4.91121,1.63086 0.98306,0.42319 2.04841,0.71102 2.60832,1.51831 -0.005,1.17322 0.83983,1.8099 0.83985,3.00781 -10e-6,0.58594 -0.0855,1.15479 -0.25636,1.70654 -0.1709,0.55176 -0.17859,5.67 -0.52037,6.18758 -0.34181,0.51758 -1.50526,-3.91515 -1.99843,-3.51476 -0.49316,0.40039 -0.56469,1.05033 -1.20922,1.33353 -0.64453,0.2832 -1.3766,2.49851 -2.10577,2.64011 -0.72916,0.1416 -1.45544,-1.7905 -2.26923,-1.7905 -0.67383,0 -1.30758,0.50425 -1.90125,0.43426 -0.59367,-0.07 -1.14726,-0.71421 -1.66077,-0.85418 -0.5135,-0.13998 -1.21298,3.05533 -1.64633,2.84537 -0.43335,-0.20997 -0.60057,-3.82519 -0.95376,-4.10514 -0.35319,-0.27995 -0.71965,-0.24701 -1.00895,-0.5945 -0.28931,-0.34749 -0.65971,1.48599 -0.88513,1.07095 -0.22542,-0.41504 -0.14763,-2.25048 -0.30917,-2.73306 -0.16154,-0.48259 -0.40417,-2.17373 -0.50183,-2.72386 z" />
        <path
           style="fill:#800000"
           sodipodi:nodetypes="cccccccsccccccccccccccsssscccccc"
           inkscape:connector-curvature="0"
           id="path5384"
           d="m -928.06641,513.95419 c 0,-6.91406 -0.96028,-20.79477 0,-20.74219 0.27611,0.12578 0.56519,0.1853 0.81363,0.45258 0.142,0.49071 0.39433,0.69947 0.62148,0.97256 0.40693,-0.3952 0.74151,-0.83443 0.93794,-1.35773 0.19671,-0.15559 0.51034,-0.0787 0.79102,-0.0674 0.30929,0.71957 0,1.96615 0,2.94922 0.76172,-1.13931 1.94845,-0.57753 3.04871,-1.1472 1.10026,-0.56966 2.43373,-1.50815 3.87254,-1.50816 1.24999,2e-5 2.33513,0.71487 3.38332,1.16407 1.04816,0.44924 1.67283,1.17461 2.19368,1.90376 0.52081,0.72918 0.78949,0.20604 0.99784,1.20862 -0.44525,2.17627 0.19529,1.79038 0.19531,3.41797 l 0,12.75391 c -0.19888,0.48464 -0.5039,0.82979 -0.8789,0.73537 -0.59161,0.0641 -0.44762,6.7789 -1.00678,6.86345 -0.80154,-0.87774 -0.0243,-6.75888 -0.75104,-6.94516 -0.44428,0.0399 -0.68833,-0.26129 -0.8789,-0.65366 l 0,-12.61719 c -2e-5,-1.43228 -0.36052,0.95572 -0.41016,-3.21289 -0.27345,-0.70962 -0.75848,-1.27602 -1.45508,-1.69922 -0.69662,-0.42316 -0.2669,3.88641 -2.45117,-0.63476 -0.7487,10e-6 -1.31826,4.83063 -1.96442,5.06826 -0.64616,0.23763 -1.65664,-3.30066 -2.23222,-2.98882 -0.65728,0.35611 -0.26055,1.5669 -0.87342,2.3378 -0.24049,0.3025 -0.63214,-1.95985 -0.43775,2.41869 0.17222,3.8792 0.21138,11.63949 0.0226,11.6459 -0.30051,-0.12865 -0.60101,-0.35161 -0.90152,-0.31777 -0.61366,0.0845 -0.59792,1.34529 -0.89442,1.5035 -0.42673,0.59785 -0.4829,4.46987 -1.04424,3.83861 -0.28616,-0.65584 -0.6103,-4.46896 -0.69806,-5.34211 z" />
        <path
           style="fill:#800000"
           sodipodi:nodetypes="sccscccssssssssssccccscsss"
           inkscape:connector-curvature="0"
           id="path5386"
           d="m -907.10937,503.5831 c 10e-6,-3.84114 1.0677,-6.68619 3.20312,-8.53516 1.78385,-1.53644 4.02226,-0.23474 6.52344,-2.30469 1.42578,1e-5 3.42465,0.54679 4.33427,1.43607 0.90961,0.88928 1.17752,1.63082 1.63492,3.0553 2.25743,1.70508 3.73782,2.76125 3.73784,6.05551 -2e-5,2.66928 -0.40041,4.76888 -1.20117,6.29882 -0.60899,7.46739 -2.39348,2.32639 -3.4961,3.56446 -0.76498,0.85895 -1.56495,2.5926 -2.39991,2.80419 -0.83496,0.21159 -1.43752,-1.68998 -2.60985,-1.53466 -0.68157,0.0903 -1.5645,0.74025 -2.26389,0.72386 -0.69939,-0.0164 -1.08735,-1.18936 -1.67411,-1.4221 -1.1735,-0.4655 -2.52752,4.66474 -3.42271,3.73376 -0.89518,-0.93099 -1.24688,-7.89554 -1.69447,-9.23669 -0.44759,-1.34114 -0.67138,-2.88737 -0.67138,-4.63867 z m 3.61328,0 c -10e-6,2.65625 -0.06,5.46226 1.16284,6.89281 1.13988,1.33354 3.19262,1.05641 4.95044,1.0564 1.74478,2.01547 3.1966,-0.66406 4.35547,-1.99218 1.15883,-1.32812 1.73826,-3.35286 1.73828,-6.07422 -2e-5,-2.56509 -0.5827,-3.6369 -2.0038,-3.92357 -0.58269,-0.6608 -0.98042,-3.06291 -1.70471,-3.39331 -0.72428,-0.33041 -1.51936,-0.49561 -2.38524,-0.49562 -0.87891,0.70814 -1.55508,2.94246 -2.28425,3.27124 -0.72916,0.32877 -1.31952,-1.30247 -2.09075,-1.29859 -1.9302,0.01 -1.73829,3.3008 -1.73828,5.95704 z" />
        <path
           style="fill:#800000"
           sodipodi:nodetypes="cccccsccccccccccccccssscccccscccccc"
           inkscape:connector-curvature="0"
           id="path5388"
           d="m -879.70703,513.95419 c -0.52897,-1.71825 -0.28936,-4.96746 -1.58691,-4.87741 -1.36489,9.02605 -1.26787,-8.24277 -2.12945,-8.26694 -0.40183,0.82258 -0.67516,4.92692 -1.40607,4.63639 -0.63899,-1.81787 -0.68845,-7.07271 -1.0896,-11.15574 0.61979,-0.65866 1.40469,0.72075 1.99457,0.64108 0.58988,-0.0797 0.26138,-1.38734 1.50262,-1.71957 0.59814,-0.14261 -0.11492,4.28301 3.30078,11.97266 l 1.23047,4.45312 c 0.0521,-0.22135 0.81703,-2.37896 1.61674,-2.73664 1.37152,-1.16068 1.06854,-8.88637 2.75826,-13.68914 0.96427,-0.16222 1.43931,0.25909 1.80664,0.80887 0.52818,0.18921 1.15944,0.11498 1.80664,0 1.07518,0.99092 0.36262,4.55368 0.91979,6.67042 0.44129,1.70388 0.99414,3.36025 1.91442,4.8601 0.30469,1.26347 0.57068,5.86033 1.30641,3.65671 0.25602,-1.27044 0.51009,-2.54088 1.23662,-3.81132 1.16983,-2.7617 2.33965,-0.92043 3.50948,-12.18478 0.52678,0.0122 0.72067,0.69665 1.57335,0.61628 0.68662,0 1.35386,-0.38518 1.7994,-0.38518 0.61466,6.78879 -0.67105,1.54771 -1.40749,3.53524 -0.49406,1.3334 -0.75649,10.13733 -1.25781,12.04939 -0.50133,1.91206 -1.24155,-3.06776 -1.96782,-1.56934 -1.64633,3.39662 -1.76431,6.48518 -1.80604,6.4958 -0.43446,0.0876 -1.04502,0.0851 -0.91308,0.46221 0.16146,1.27598 -0.837,3.64394 -0.9583,3.58212 -0.45932,0.20102 -0.92647,-3.36332 -1.02771,-3.55722 -0.30436,-0.56717 -0.4409,-0.41088 -0.74526,-0.51435 -0.4022,-0.32778 -0.72828,-2.73794 -1.31739,-5.23708 -0.58911,-2.49913 -1.98379,6.81464 -1.99139,-7.15756 l -0.80078,-3.53515 c -1.3506,3.55035 -0.43337,14.34694 -1.60229,14.60351 -2.25176,-2.4986 -2.15761,-1.09411 -2.59693,1.35352 -0.58905,1.36317 -0.85337,7.72055 -1.83593,8.43531 -1.2287,0.0509 -1.17226,-7.01293 -1.83594,-8.43531 z" />
      </g>
      <flowRoot
         transform="matrix(0.34954262,0,0,0.41291028,-838.80518,643.75315)"
         style="font-size:40px;font-style:normal;font-weight:normal;line-height:125%;letter-spacing:0px;word-spacing:0px;fill:#800000;fill-opacity:1;stroke:none;font-family:Sans"
         id="flowRoot3180"
         xml:space="preserve"><flowRegion
           id="flowRegion3182"><rect
             style="fill:#800000"
             y="542.53821"
             x="-731.85547"
             height="66.468033"
             width="72.831993"
             id="rect3184" /></flowRegion><flowPara
           id="flowPara3186">Zrt</flowPara></flowRoot>    </g>
  </g>
</svg>
